<?xml version="1.0" encoding="UTF-8"?>
<svg width="800px" height="350px" viewBox="0 0 800 350" version="1.1" xmlns="http://www.w3.org/2000/svg" xmlns:xlink="http://www.w3.org/1999/xlink">
    <title>Group 2</title>
    <g id="Page-1" stroke="none" stroke-width="1" fill="none" fill-rule="evenodd">
        <g id="Group-2">
            <rect id="Rectangle" fill-opacity="0" fill="#D8D8D8" x="0" y="0" width="800" height="350"></rect>
            <g id="Group" transform="translate(306.000000, 58.000000)" fill="#007AFF">
                <path d="M15.3833112,193 L173.616689,193 C178.965801,193 180.905519,193.556954 182.861074,194.602796 C184.81663,195.648639 186.351361,197.18337 187.397204,199.138926 C188.443046,201.094481 189,203.034199 189,208.383311 L189,218.616689 C189,223.965801 188.443046,225.905519 187.397204,227.861074 C186.351361,229.81663 184.81663,231.351361 182.861074,232.397204 C180.905519,233.443046 178.965801,234 173.616689,234 L15.3833112,234 C10.0341988,234 8.09448133,233.443046 6.13892578,232.397204 C4.18337022,231.351361 2.64863878,229.81663 1.60279622,227.861074 C0.556953667,225.905519 1.11373234e-15,223.965801 -1.91682812e-15,218.616689 L4.14336123e-16,208.383311 C-2.4074122e-16,203.034199 0.556953667,201.094481 1.60279622,199.138926 C2.64863878,197.18337 4.18337022,195.648639 6.13892578,194.602796 C8.09448133,193.556954 10.0341988,193 15.3833112,193 Z" id="Rectangle-Copy" fill-opacity="0.4"></path>
                <path d="M15.3833112,145 L173.616689,145 C178.965801,145 180.905519,145.556954 182.861074,146.602796 C184.81663,147.648639 186.351361,149.18337 187.397204,151.138926 C188.443046,153.094481 189,155.034199 189,160.383311 L189,170.616689 C189,175.965801 188.443046,177.905519 187.397204,179.861074 C186.351361,181.81663 184.81663,183.351361 182.861074,184.397204 C180.905519,185.443046 178.965801,186 173.616689,186 L15.3833112,186 C10.0341988,186 8.09448133,185.443046 6.13892578,184.397204 C4.18337022,183.351361 2.64863878,181.81663 1.60279622,179.861074 C0.556953667,177.905519 1.11373234e-15,175.965801 -1.91682812e-15,170.616689 L4.14336123e-16,160.383311 C-2.4074122e-16,155.034199 0.556953667,153.094481 1.60279622,151.138926 C2.64863878,149.18337 4.18337022,147.648639 6.13892578,146.602796 C8.09448133,145.556954 10.0341988,145 15.3833112,145 Z" id="Rectangle" fill-opacity="0.6"></path>
                <path d="M15.3833112,96 L173.616689,96 C178.965801,96 180.905519,96.5569537 182.861074,97.6027962 C184.81663,98.6486388 186.351361,100.18337 187.397204,102.138926 C188.443046,104.094481 189,106.034199 189,111.383311 L189,121.616689 C189,126.965801 188.443046,128.905519 187.397204,130.861074 C186.351361,132.81663 184.81663,134.351361 182.861074,135.397204 C180.905519,136.443046 178.965801,137 173.616689,137 L15.3833112,137 C10.0341988,137 8.09448133,136.443046 6.13892578,135.397204 C4.18337022,134.351361 2.64863878,132.81663 1.60279622,130.861074 C0.556953667,128.905519 1.11373234e-15,126.965801 -1.91682812e-15,121.616689 L4.14336123e-16,111.383311 C-2.4074122e-16,106.034199 0.556953667,104.094481 1.60279622,102.138926 C2.64863878,100.18337 4.18337022,98.6486388 6.13892578,97.6027962 C8.09448133,96.5569537 10.0341988,96 15.3833112,96 Z" id="Rectangle"></path>
                <path d="M15.3833112,48 L173.616689,48 C178.965801,48 180.905519,48.5569537 182.861074,49.6027962 C184.81663,50.6486388 186.351361,52.1833702 187.397204,54.1389258 C188.443046,56.0944813 189,58.0341988 189,63.3833112 L189,73.6166888 C189,78.9658012 188.443046,80.9055187 187.397204,82.8610742 C186.351361,84.8166298 184.81663,86.3513612 182.861074,87.3972038 C180.905519,88.4430463 178.965801,89 173.616689,89 L15.3833112,89 C10.0341988,89 8.09448133,88.4430463 6.13892578,87.3972038 C4.18337022,86.3513612 2.64863878,84.8166298 1.60279622,82.8610742 C0.556953667,80.9055187 1.11373234e-15,78.9658012 -1.91682812e-15,73.6166888 L4.14336123e-16,63.3833112 C-2.4074122e-16,58.0341988 0.556953667,56.0944813 1.60279622,54.1389258 C2.64863878,52.1833702 4.18337022,50.6486388 6.13892578,49.6027962 C8.09448133,48.5569537 10.0341988,48 15.3833112,48 Z" id="Rectangle"></path>
                <path d="M15.3833112,-4.14336123e-16 L173.616689,6.21504185e-16 C178.965801,-3.61111829e-16 180.905519,0.556953667 182.861074,1.60279622 C184.81663,2.64863878 186.351361,4.18337022 187.397204,6.13892578 C188.443046,8.09448133 189,10.0341988 189,15.3833112 L189,25.6166888 C189,30.9658012 188.443046,32.9055187 187.397204,34.8610742 C186.351361,36.8166298 184.81663,38.3513612 182.861074,39.3972038 C180.905519,40.4430463 178.965801,41 173.616689,41 L15.3833112,41 C10.0341988,41 8.09448133,40.4430463 6.13892578,39.3972038 C4.18337022,38.3513612 2.64863878,36.8166298 1.60279622,34.8610742 C0.556953667,32.9055187 1.11373234e-15,30.9658012 -1.91682812e-15,25.6166888 L4.14336123e-16,15.3833112 C-2.4074122e-16,10.0341988 0.556953667,8.09448133 1.60279622,6.13892578 C2.64863878,4.18337022 4.18337022,2.64863878 6.13892578,1.60279622 C8.09448133,0.556953667 10.0341988,2.4074122e-16 15.3833112,-4.14336123e-16 Z" id="Rectangle"></path>
            </g>
        </g>
    </g>
</svg>