<?xml version="1.0" encoding="UTF-8"?>
<svg width="699px" height="300px" viewBox="0 0 699 300" version="1.1" xmlns="http://www.w3.org/2000/svg" xmlns:xlink="http://www.w3.org/1999/xlink">
    <title>Group 2</title>
    <defs>
        <linearGradient x1="100%" y1="46.3757396%" x2="0%" y2="53.6242604%" id="linearGradient-1">
            <stop stop-color="#32C5FF" offset="0%"></stop>
            <stop stop-color="#B620E0" offset="51.2583893%"></stop>
            <stop stop-color="#F7B500" offset="100%"></stop>
        </linearGradient>
    </defs>
    <g id="Page-1" stroke="none" stroke-width="1" fill="none" fill-rule="evenodd">
        <g id="Group-2">
            <rect id="Rectangle" fill-opacity="0" fill="#D8D8D8" x="0" y="0" width="699" height="300"></rect>
            <text id="Paginator" fill="url(#linearGradient-1)" fill-rule="nonzero" font-family="SFProDisplay-Light, SF Pro Display" font-size="52" font-weight="300" letter-spacing="3.71428571">
                <tspan x="233" y="277">Paginator</tspan>
            </text>
            <g id="Group" transform="translate(254.000000, 22.000000)" fill="#007AFF">
                <path d="M14.8619706,167 L176.138029,167 C180.861533,167 182.905519,167.556954 184.861074,168.602796 C186.81663,169.648639 188.351361,171.18337 189.397204,173.138926 C190.443046,175.094481 191,177.138467 191,181.861971 L191,187.138029 C191,191.861533 190.443046,193.905519 189.397204,195.861074 C188.351361,197.81663 186.81663,199.351361 184.861074,200.397204 C182.905519,201.443046 180.861533,202 176.138029,202 L14.8619706,202 C10.1384669,202 8.09448133,201.443046 6.13892578,200.397204 C4.18337022,199.351361 2.64863878,197.81663 1.60279622,195.861074 C0.556953667,193.905519 1.13986029e-16,191.861533 -1.75245156e-16,187.138029 L3.50490312e-16,181.861971 C-2.27972057e-16,177.138467 0.556953667,175.094481 1.60279622,173.138926 C2.64863878,171.18337 4.18337022,169.648639 6.13892578,168.602796 C8.09448133,167.556954 10.1384669,167 14.8619706,167 Z" id="Rectangle-Copy" fill-opacity="0.4"></path>
                <path d="M14.8619706,125 L176.138029,125 C180.861533,125 182.905519,125.556954 184.861074,126.602796 C186.81663,127.648639 188.351361,129.18337 189.397204,131.138926 C190.443046,133.094481 191,135.138467 191,139.861971 L191,145.138029 C191,149.861533 190.443046,151.905519 189.397204,153.861074 C188.351361,155.81663 186.81663,157.351361 184.861074,158.397204 C182.905519,159.443046 180.861533,160 176.138029,160 L14.8619706,160 C10.1384669,160 8.09448133,159.443046 6.13892578,158.397204 C4.18337022,157.351361 2.64863878,155.81663 1.60279622,153.861074 C0.556953667,151.905519 1.13986029e-16,149.861533 -1.75245156e-16,145.138029 L3.50490312e-16,139.861971 C-2.27972057e-16,135.138467 0.556953667,133.094481 1.60279622,131.138926 C2.64863878,129.18337 4.18337022,127.648639 6.13892578,126.602796 C8.09448133,125.556954 10.1384669,125 14.8619706,125 Z" id="Rectangle" fill-opacity="0.6"></path>
                <path d="M14.8619706,84 L176.138029,84 C180.861533,84 182.905519,84.5569537 184.861074,85.6027962 C186.81663,86.6486388 188.351361,88.1833702 189.397204,90.1389258 C190.443046,92.0944813 191,94.1384669 191,98.8619706 L191,104.138029 C191,108.861533 190.443046,110.905519 189.397204,112.861074 C188.351361,114.81663 186.81663,116.351361 184.861074,117.397204 C182.905519,118.443046 180.861533,119 176.138029,119 L14.8619706,119 C10.1384669,119 8.09448133,118.443046 6.13892578,117.397204 C4.18337022,116.351361 2.64863878,114.81663 1.60279622,112.861074 C0.556953667,110.905519 1.13986029e-16,108.861533 -1.75245156e-16,104.138029 L3.50490312e-16,98.8619706 C-2.27972057e-16,94.1384669 0.556953667,92.0944813 1.60279622,90.1389258 C2.64863878,88.1833702 4.18337022,86.6486388 6.13892578,85.6027962 C8.09448133,84.5569537 10.1384669,84 14.8619706,84 Z" id="Rectangle"></path>
                <path d="M14.8619706,42 L176.138029,42 C180.861533,42 182.905519,42.5569537 184.861074,43.6027962 C186.81663,44.6486388 188.351361,46.1833702 189.397204,48.1389258 C190.443046,50.0944813 191,52.1384669 191,56.8619706 L191,62.1380294 C191,66.8615331 190.443046,68.9055187 189.397204,70.8610742 C188.351361,72.8166298 186.81663,74.3513612 184.861074,75.3972038 C182.905519,76.4430463 180.861533,77 176.138029,77 L14.8619706,77 C10.1384669,77 8.09448133,76.4430463 6.13892578,75.3972038 C4.18337022,74.3513612 2.64863878,72.8166298 1.60279622,70.8610742 C0.556953667,68.9055187 1.13986029e-16,66.8615331 -1.75245156e-16,62.1380294 L3.50490312e-16,56.8619706 C-2.27972057e-16,52.1384669 0.556953667,50.0944813 1.60279622,48.1389258 C2.64863878,46.1833702 4.18337022,44.6486388 6.13892578,43.6027962 C8.09448133,42.5569537 10.1384669,42 14.8619706,42 Z" id="Rectangle"></path>
                <path d="M14.8619706,-3.50490312e-16 L176.138029,5.25735469e-16 C180.861533,-3.41958086e-16 182.905519,0.556953667 184.861074,1.60279622 C186.81663,2.64863878 188.351361,4.18337022 189.397204,6.13892578 C190.443046,8.09448133 191,10.1384669 191,14.8619706 L191,20.1380294 C191,24.8615331 190.443046,26.9055187 189.397204,28.8610742 C188.351361,30.8166298 186.81663,32.3513612 184.861074,33.3972038 C182.905519,34.4430463 180.861533,35 176.138029,35 L14.8619706,35 C10.1384669,35 8.09448133,34.4430463 6.13892578,33.3972038 C4.18337022,32.3513612 2.64863878,30.8166298 1.60279622,28.8610742 C0.556953667,26.9055187 1.13986029e-16,24.8615331 -1.75245156e-16,20.1380294 L3.50490312e-16,14.8619706 C-2.27972057e-16,10.1384669 0.556953667,8.09448133 1.60279622,6.13892578 C2.64863878,4.18337022 4.18337022,2.64863878 6.13892578,1.60279622 C8.09448133,0.556953667 10.1384669,2.27972057e-16 14.8619706,-3.50490312e-16 Z" id="Rectangle"></path>
            </g>
        </g>
    </g>
</svg>